<svg xmlns="http://www.w3.org/2000/svg" width="512" height="512" viewBox="0 0 512 512">
  <defs>
    <clipPath id="shield">
      <path d="M256 20 C120 20, 30 100, 30 200 C30 340, 256 490, 256 490 C256 490, 482 340, 482 200 C482 100, 392 20, 256 20Z"/>
    </clipPath>
  </defs>
  <!-- Outer shield -->
  <path d="M256 10 C115 10, 20 95, 20 200 C20 345, 256 500, 256 500 C256 500, 492 345, 492 200 C492 95, 397 10, 256 10Z" fill="#1a1a1a"/>
  <path d="M256 25 C125 25, 35 105, 35 205 C35 340, 256 485, 256 485 C256 485, 477 340, 477 205 C477 105, 387 25, 256 25Z" fill="#ffffff"/>
  <path d="M256 35 C130 35, 45 110, 45 210 C45 335, 256 475, 256 475 C256 475, 467 335, 467 210 C467 110, 382 35, 256 35Z" fill="#1a1a1a"/>
  <!-- Inner fill -->
  <path d="M256 50 C140 50, 60 120, 60 215 C60 330, 256 460, 256 460 C256 460, 452 330, 452 215 C452 120, 372 50, 256 50Z" fill="#ffffff"/>
  <!-- Red top section -->
  <path d="M256 50 C140 50, 60 120, 60 215 C60 215, 120 180, 256 200 C392 180, 452 215, 452 215 C452 120, 372 50, 256 50Z" fill="#e30613"/>
  <!-- Tower silhouette -->
  <g fill="#666666">
    <rect x="244" y="150" width="24" height="180" rx="2"/>
    <polygon points="256,120 240,180 272,180"/>
    <rect x="200" y="280" width="112" height="50" rx="5"/>
    <polygon points="195,310 200,280 200,330"/>
    <polygon points="317,310 312,280 312,330"/>
  </g>
  <!-- DOC BERN text banner -->
  <g>
    <rect x="175" y="330" width="162" height="32" rx="4" fill="#888"/>
    <polygon points="170,335 175,330 175,362 170,357" fill="#777"/>
    <polygon points="342,335 337,330 337,362 342,357" fill="#777"/>
    <text x="256" y="352" text-anchor="middle" font-family="Arial Black, sans-serif" font-size="18" font-weight="900" font-style="italic" fill="#1a1a1a">DOC BERN</text>
  </g>
</svg>
